<?xml version="1.0" encoding="UTF-8" standalone="no"?><svg xmlns="http://www.w3.org/2000/svg" xmlns:xlink="http://www.w3.org/1999/xlink" contentScriptType="application/ecmascript" contentStyleType="text/css" height="280px" preserveAspectRatio="none" style="width:400px;height:280px;" version="1.1" viewBox="0 0 400 280" width="400px" zoomAndPan="magnify"><defs><filter height="300%" id="fui5q28wj2n87" width="300%" x="-1" y="-1"><feGaussianBlur result="blurOut" stdDeviation="2.0"/><feColorMatrix in="blurOut" result="blurOut2" type="matrix" values="0 0 0 0 0 0 0 0 0 0 0 0 0 0 0 0 0 0 .4 0"/><feOffset dx="4.0" dy="4.0" in="blurOut2" result="blurOut3"/><feBlend in="SourceGraphic" in2="blurOut3" mode="normal"/></filter></defs><g><text fill="#000000" font-family="sans-serif" font-size="18" lengthAdjust="spacingAndGlyphs" textLength="283" x="62" y="17.4375">Singleton en Java (clase Logger)</text><!--class Logger--><rect fill="#FEFECE" filter="url(#fui5q28wj2n87)" height="114.5479" id="Logger" style="stroke: #A80036; stroke-width: 1.5;" width="145" x="6" y="154.7793"/><ellipse cx="54.25" cy="170.7793" fill="#ADD1B2" rx="11" ry="11" style="stroke: #A80036; stroke-width: 1.0;"/><path d="M57.2188,176.4199 Q56.6406,176.7168 56,176.8574 Q55.3594,177.0137 54.6563,177.0137 Q52.1563,177.0137 50.8281,175.373 Q49.5156,173.7168 49.5156,170.5918 Q49.5156,167.4668 50.8281,165.8105 Q52.1563,164.1543 54.6563,164.1543 Q55.3594,164.1543 56,164.3105 Q56.6563,164.4668 57.2188,164.7637 L57.2188,167.4824 Q56.5938,166.9043 56,166.6387 Q55.4063,166.3574 54.7813,166.3574 Q53.4375,166.3574 52.75,167.4355 Q52.0625,168.498 52.0625,170.5918 Q52.0625,172.6855 52.75,173.7637 Q53.4375,174.8262 54.7813,174.8262 Q55.4063,174.8262 56,174.5605 Q56.5938,174.2793 57.2188,173.7012 L57.2188,176.4199 Z "/><text fill="#000000" font-family="sans-serif" font-size="12" lengthAdjust="spacingAndGlyphs" textLength="40" x="74.75" y="175.1445">Logger</text><line style="stroke: #A80036; stroke-width: 1.5;" x1="7" x2="150" y1="186.7793" y2="186.7793"/><rect fill="none" height="6" style="stroke: #C82930; stroke-width: 1.0;" width="6" x="14" y="195.9341"/><text fill="#000000" font-family="sans-serif" font-size="11" lengthAdjust="spacingAndGlyphs" text-decoration="underline" textLength="106" x="26" y="201.4355">INSTANCIA : Logger</text><rect fill="none" height="6" style="stroke: #C82930; stroke-width: 1.0;" width="6" x="14" y="209.2437"/><text fill="#000000" font-family="sans-serif" font-size="11" lengthAdjust="spacingAndGlyphs" textLength="73" x="26" y="214.7451">logCount : int</text><line style="stroke: #A80036; stroke-width: 1.5;" x1="7" x2="150" y1="221.3984" y2="221.3984"/><rect fill="#F24D5C" height="6" style="stroke: #C82930; stroke-width: 1.0;" width="6" x="14" y="230.5532"/><text fill="#000000" font-family="sans-serif" font-size="11" lengthAdjust="spacingAndGlyphs" textLength="45" x="26" y="236.0547">Logger()</text><ellipse cx="17" cy="246.8628" fill="#84BE84" rx="3" ry="3" style="stroke: #038048; stroke-width: 1.0;"/><text fill="#000000" font-family="sans-serif" font-size="11" lengthAdjust="spacingAndGlyphs" text-decoration="underline" textLength="119" x="26" y="249.3643">getInstancia() : Logger</text><ellipse cx="17" cy="260.1724" fill="#84BE84" rx="3" ry="3" style="stroke: #038048; stroke-width: 1.0;"/><text fill="#000000" font-family="sans-serif" font-size="11" lengthAdjust="spacingAndGlyphs" textLength="110" x="26" y="262.6738">log(mensaje : String)</text><!--class Principal--><rect fill="#FEFECE" filter="url(#fui5q28wj2n87)" height="48" id="Principal" style="stroke: #A80036; stroke-width: 1.5;" width="82" x="37.5" y="29.7793"/><ellipse cx="52.5" cy="45.7793" fill="#ADD1B2" rx="11" ry="11" style="stroke: #A80036; stroke-width: 1.0;"/><path d="M55.4688,51.4199 Q54.8906,51.7168 54.25,51.8574 Q53.6094,52.0137 52.9063,52.0137 Q50.4063,52.0137 49.0781,50.373 Q47.7656,48.7168 47.7656,45.5918 Q47.7656,42.4668 49.0781,40.8105 Q50.4063,39.1543 52.9063,39.1543 Q53.6094,39.1543 54.25,39.3105 Q54.9063,39.4668 55.4688,39.7637 L55.4688,42.4824 Q54.8438,41.9043 54.25,41.6387 Q53.6563,41.3574 53.0313,41.3574 Q51.6875,41.3574 51,42.4355 Q50.3125,43.498 50.3125,45.5918 Q50.3125,47.6855 51,48.7637 Q51.6875,49.8262 53.0313,49.8262 Q53.6563,49.8262 54.25,49.5605 Q54.8438,49.2793 55.4688,48.7012 L55.4688,51.4199 Z "/><text fill="#000000" font-family="sans-serif" font-size="12" lengthAdjust="spacingAndGlyphs" textLength="50" x="66.5" y="50.1445">Principal</text><line style="stroke: #A80036; stroke-width: 1.5;" x1="38.5" x2="118.5" y1="61.7793" y2="61.7793"/><line style="stroke: #A80036; stroke-width: 1.5;" x1="38.5" x2="118.5" y1="69.7793" y2="69.7793"/><path d="M186.5,191.7793 L186.5,208.2793 L151.16,212.2793 L186.5,216.2793 L186.5,233.2383 A0,0 0 0 0 186.5,233.2383 L388.5,233.2383 A0,0 0 0 0 388.5,233.2383 L388.5,201.7793 L378.5,191.7793 L186.5,191.7793 A0,0 0 0 0 186.5,191.7793 " fill="#FBFB77" filter="url(#fui5q28wj2n87)" style="stroke: #A80036; stroke-width: 1.0;"/><path d="M378.5,191.7793 L378.5,201.7793 L388.5,201.7793 L378.5,191.7793 " fill="#FBFB77" style="stroke: #A80036; stroke-width: 1.0;"/><text fill="#000000" font-family="sans-serif" font-size="13" lengthAdjust="spacingAndGlyphs" textLength="181" x="192.5" y="209.373">El constructor privado impide</text><text fill="#000000" font-family="sans-serif" font-size="13" lengthAdjust="spacingAndGlyphs" textLength="169" x="192.5" y="225.1025">new Logger() desde fuera.</text><!--link Principal to Logger--><path d="M78.5,77.8693 C78.5,96.7593 78.5,124.3793 78.5,149.5993 " fill="none" id="Principal-Logger" style="stroke: #A80036; stroke-width: 1.0; stroke-dasharray: 7.0,7.0;"/><polygon fill="#A80036" points="78.5,154.5993,82.5,145.5993,78.5,149.5993,74.5,145.5993,78.5,154.5993" style="stroke: #A80036; stroke-width: 1.0;"/><text fill="#000000" font-family="sans-serif" font-size="13" lengthAdjust="spacingAndGlyphs" textLength="84" x="79.5" y="121.373">getInstancia()</text><!--
@startuml
title Singleton en Java (clase Logger)
class Logger {
  - {static} INSTANCIA : Logger
  - logCount : int
  - Logger()
  + {static} getInstancia() : Logger
  + log(mensaje : String)
}
class Principal
Principal ..> Logger : getInstancia()
note right of Logger
  El constructor privado impide
  new Logger() desde fuera.
end note
@enduml

PlantUML version 1.2019.06(Fri May 24 12:10:25 CDT 2019)
(GPL source distribution)
Java Runtime: OpenJDK Runtime Environment
JVM: OpenJDK 64-Bit Server VM
Java Version: 21.0.12.1+1-1-24.04.4-Ubuntu
Operating System: Linux
OS Version: 6.18.44-fc-v70
Default Encoding: UTF-8
Language: en
Country: US
--></g></svg>